<svg width="329" height="329" viewBox="0 0 329 329" fill="none" xmlns="http://www.w3.org/2000/svg">
<path fill-rule="evenodd" clip-rule="evenodd" d="M164.5 30.8438C90.6806 30.8438 30.8438 90.6806 30.8438 164.5C30.8438 238.319 90.6806 298.156 164.5 298.156C238.319 298.156 298.156 238.319 298.156 164.5C298.156 90.6806 238.319 30.8438 164.5 30.8438ZM117.165 61.756C99.1184 70.0747 83.5822 83.0017 72.121 99.2351C60.6597 115.469 53.6781 134.435 51.8792 154.225C50.0803 174.015 53.5275 193.93 61.8739 211.964C70.2202 229.998 83.1709 245.514 99.4219 256.951C115.673 268.387 134.65 275.34 154.443 277.108C174.236 278.877 194.145 275.399 212.166 267.025C230.188 258.651 245.684 245.677 257.096 229.408C268.507 213.14 275.431 194.152 277.169 174.356L270.863 168.05C268.515 165.701 266.562 162.989 265.078 160.017L250.273 130.407C249.87 129.604 249.282 128.907 248.557 128.376C247.832 127.844 246.992 127.492 246.104 127.348C245.217 127.205 244.308 127.275 243.452 127.552C242.597 127.828 241.82 128.305 241.184 128.941C239.754 130.369 237.968 131.39 236.011 131.896C234.054 132.402 231.997 132.376 230.053 131.819L212.603 126.843C209.81 126.058 206.83 126.294 204.196 127.507C201.562 128.721 199.446 130.833 198.228 133.465C197.01 136.097 196.77 139.077 197.55 141.871C198.33 144.664 200.08 147.088 202.486 148.708L210.533 154.054C218.62 159.469 219.772 170.916 212.89 177.797L210.149 180.539C207.256 183.445 205.625 187.365 205.625 191.451V197.071C205.625 202.678 204.117 208.161 201.238 212.945L183.212 242.98C180.642 247.266 177.006 250.813 172.658 253.276C168.309 255.738 163.397 257.032 158.4 257.031C154.564 257.031 150.886 255.508 148.173 252.795C145.461 250.083 143.937 246.405 143.937 242.569V226.503C143.937 213.891 136.261 202.554 124.554 197.866L115.589 194.288C109.053 191.675 103.608 186.906 100.157 180.772C96.7058 174.638 95.4565 167.508 96.6163 160.566L96.7123 159.99C97.3495 156.176 98.6981 152.517 100.688 149.201L101.921 147.145C105.195 141.694 110.074 137.387 115.89 134.815C121.706 132.244 128.174 131.532 134.41 132.779L150.559 136.014C154.359 136.772 158.305 136.072 161.612 134.052C164.919 132.033 167.345 128.843 168.407 125.116L171.258 115.109C172.246 111.652 171.995 107.958 170.548 104.666C169.101 101.375 166.55 98.6923 163.335 97.0824L154.219 92.5312L152.971 93.7787C150.107 96.6428 146.707 98.9147 142.965 100.465C139.223 102.015 135.212 102.813 131.161 102.812H128.694C125.28 102.812 122.018 104.183 119.619 106.569C117.42 108.787 114.485 110.122 111.367 110.321C108.25 110.521 105.169 109.57 102.706 107.649C100.243 105.728 98.5695 102.971 98.0031 99.8994C97.4366 96.8278 98.0163 93.6551 99.6322 90.9822L117.165 61.756Z" fill="#2B62D0"/>
</svg>
